<?xml version="1.0" encoding="UTF-8"?>
<svg version="1.1" xmlns="http://www.w3.org/2000/svg" width="1024" height="1024">
<path d="M0 0 C7.85973197 -0.2840867 15.3088614 0.74171304 23.0546875 2.0078125 C24.06917969 2.1730542 25.08367188 2.3382959 26.12890625 2.50854492 C32.23520855 3.57284056 37.91244983 5.11555662 43.7421875 7.1953125 C45.88577184 7.84857169 48.03140607 8.49516973 50.1796875 9.1328125 C74.22941077 16.59460669 96.11229687 31.29919869 113.7421875 49.1953125 C114.60263672 50.00355469 114.60263672 50.00355469 115.48046875 50.828125 C120.66677408 55.74417621 124.71033067 61.3155213 128.7421875 67.1953125 C129.33 68.04996094 129.9178125 68.90460938 130.5234375 69.78515625 C144.64866334 91.13350893 156.21718356 118.32011834 156.7421875 144.1953125 C156.80019531 145.93167969 156.80019531 145.93167969 156.859375 147.703125 C157.6939549 194.3468683 141.34007156 238.29540518 109.45703125 272.39453125 C106.63078167 275.31024485 103.72282816 278.01306526 100.59375 280.59765625 C98.62905455 282.2410906 98.62905455 282.2410906 96.58203125 284.45703125 C80.84853357 299.62784538 62.05304662 308.90840647 41.7421875 316.1953125 C42.9255916 318.74336276 43.84731197 320.30043697 45.8671875 322.3203125 C47.7421875 324.1953125 47.7421875 324.1953125 47.7421875 326.1953125 C48.4021875 326.1953125 49.0621875 326.1953125 49.7421875 326.1953125 C51.4916144 328.22112456 53.12517471 330.254667 54.7421875 332.3828125 C55.22985596 333.01485596 55.71752441 333.64689941 56.2199707 334.2980957 C57.23474516 335.61466183 58.24683452 336.93330154 59.25634766 338.25390625 C60.6332683 340.0529981 62.01936733 341.84443199 63.41015625 343.6328125 C65.87215624 346.80698054 68.33109235 349.98220741 70.7421875 353.1953125 C71.35191406 354.00709961 71.96164062 354.81888672 72.58984375 355.65527344 C96.60991673 388.10768047 134.06494005 455.00385721 131.8046875 497.6328125 C130.43000272 502.24204972 128.82114255 503.70261775 124.7421875 506.1953125 C118.37813354 507.49685873 111.90444118 507.45182675 105.4296875 507.6328125 C94.6670759 507.97458816 83.96213775 508.62267927 73.2331543 509.53491211 C68.04633448 509.97103243 62.9476499 510.30559772 57.7421875 510.1953125 C58.0721875 511.1853125 58.4021875 512.1753125 58.7421875 513.1953125 C60.49149029 542.2837189 58.72150051 573.51544589 53.7421875 602.1953125 C53.61070312 603.02998047 53.47921875 603.86464844 53.34375 604.72460938 C53.19679688 605.53478516 53.04984375 606.34496094 52.8984375 607.1796875 C52.77275391 607.90381836 52.64707031 608.62794922 52.51757812 609.37402344 C51.7421875 611.1953125 51.7421875 611.1953125 49.66992188 612.44628906 C49.03376953 612.6934668 48.39761719 612.94064453 47.7421875 613.1953125 C47.7421875 613.8553125 47.7421875 614.5153125 47.7421875 615.1953125 C42.90297081 620.35013028 36.83011927 624.50378462 31.26074219 628.84301758 C26.89507893 632.25669442 22.60553478 635.74981531 18.3671875 639.3203125 C17.80169189 639.7937207 17.23619629 640.26712891 16.65356445 640.75488281 C15.32945271 641.87817059 14.03262221 643.03349255 12.7421875 644.1953125 C12.7421875 644.5253125 12.7421875 644.8553125 12.7421875 645.1953125 C18.30017702 646.11594959 23.7272705 646.40300257 29.35546875 646.51171875 C30.73411354 646.54302635 30.73411354 646.54302635 32.14060974 646.57496643 C35.11188868 646.64075092 38.08324719 646.69980783 41.0546875 646.7578125 C42.06640015 646.77865906 43.07811279 646.79950562 44.1204834 646.82098389 C91.36042246 647.90681449 91.36042246 647.90681449 138.09375 641.78125 C144.229575 640.79583913 150.7130292 640.60270465 156.7421875 642.1953125 C159.7421875 644.8203125 159.7421875 644.8203125 161.7421875 648.1953125 C161.68262668 651.64984017 161.40423503 654.06373507 159.64990234 657.06225586 C158.4444042 659.89507922 158.80511104 661.66867219 159.28125 664.69921875 C159.44753906 665.81409668 159.61382813 666.92897461 159.78515625 668.07763672 C159.97722656 669.29209473 160.16929687 670.50655273 160.3671875 671.7578125 C160.75896688 674.39665984 161.14764808 677.035753 161.53125 679.67578125 C161.68306732 680.71149261 161.68306732 680.71149261 161.83795166 681.76812744 C162.98390218 689.68198576 163.8627719 697.62326565 164.7421875 705.5703125 C167.23719097 727.89037965 170.13073285 750.14938345 173.3046875 772.3828125 C173.41138763 773.13129456 173.51808777 773.87977661 173.62802124 774.65093994 C174.60332282 781.4790742 175.58213151 788.30533237 176.69140625 795.11328125 C178.06989744 803.59326188 179.07740009 811.98655035 179.5546875 820.5703125 C179.60786133 821.4454248 179.66103516 822.32053711 179.71582031 823.22216797 C179.92143788 827.95785535 179.82433021 831.81399592 177.7421875 836.1953125 C174.1845132 838.56709537 172.00095 839.04845862 167.7421875 839.1953125 C163.63234832 836.82073875 162.16777451 834.62281424 160.7421875 830.1953125 C160.1757874 827.11034222 159.80926781 824.00908481 159.4453125 820.89453125 C159.33132614 819.96694 159.21733978 819.03934875 159.09989929 818.08364868 C158.72447687 815.0174219 158.35846993 811.95014333 157.9921875 808.8828125 C157.72933467 806.72606557 157.46573228 804.56940987 157.20141602 802.4128418 C156.65158796 797.92109881 156.10500838 793.42897918 155.56103516 788.93652344 C154.29052473 778.45740011 152.98705757 767.98239136 151.6796875 757.5078125 C151.49368484 756.01503281 151.49368484 756.01503281 151.30392456 754.49209595 C149.62229354 741.00876174 147.88277339 727.53458841 146.0546875 714.0703125 C145.95135101 713.30916138 145.84801453 712.54801025 145.74154663 711.76379395 C144.77812234 704.6799888 143.80182836 697.59813297 142.80078125 690.51953125 C141.42497321 680.74489505 140.23052657 671.06312951 139.7421875 661.1953125 C138.87722656 661.38867188 138.01226563 661.58203125 137.12109375 661.78125 C106.01405451 668.21279752 73.3756439 667.42166374 41.7421875 667.1953125 C41.6093189 684.31427172 41.99074268 701.39461533 42.55030823 718.50361633 C42.64112071 721.30989415 42.72812907 724.11628489 42.81510925 726.92268372 C43.25969776 741.25148751 43.74360795 755.57804797 44.3104744 769.90256119 C44.38972803 771.91472691 44.46763728 773.92693973 44.54501343 775.93917847 C44.78677872 782.22228696 45.03751241 788.50468622 45.30810547 794.78662109 C45.39602969 797.03220619 45.48346067 799.27781067 45.5703125 801.5234375 C45.61803802 802.53808075 45.66576355 803.552724 45.7149353 804.59811401 C46.03545789 813.44795543 46.03545789 813.44795543 43.7421875 817.1953125 C40.20089566 819.55617372 38.91468532 819.76800828 34.7421875 819.1953125 C31.13136067 816.69550931 28.11948885 814.45242576 26.7421875 810.1953125 C25.88553534 805.12635777 25.5691652 800.14955895 25.49609375 795.01953125 C25.46436596 793.39371406 25.43245647 791.7679004 25.40039062 790.14208984 C25.38500244 789.2878241 25.36961426 788.43355835 25.35375977 787.55340576 C25.07484793 772.37456602 24.54861467 757.22970752 23.7421875 742.0703125 C22.38841894 716.46429448 22.0901599 690.8313015 21.7421875 665.1953125 C20.7066272 665.21102295 20.7066272 665.21102295 19.65014648 665.22705078 C16.49336451 665.26886947 13.33664105 665.29472052 10.1796875 665.3203125 C9.09365234 665.33707031 8.00761719 665.35382812 6.88867188 665.37109375 C-2.18956699 665.42628061 -2.18956699 665.42628061 -6.35571289 664.09643555 C-9.31864845 662.8069893 -9.31864845 662.8069893 -12.12890625 664.65234375 C-16.89251575 668.84179893 -16.89251575 668.84179893 -20 674.2421875 C-20.08513126 676.6826169 -19.72914233 678.79645472 -19.2578125 681.1953125 C-19.02964844 682.85433594 -19.02964844 682.85433594 -18.796875 684.546875 C-15.52603245 705.40380604 -7.16521734 725.42133695 -0.33052063 745.31391907 C2.75076107 754.28333655 5.80270543 763.26150864 8.8046875 772.2578125 C9.14999512 773.2893042 9.49530273 774.3207959 9.85107422 775.38354492 C11.50696167 780.36061109 13.10519625 785.34921137 14.6328125 790.3671875 C16.86521451 797.67357719 19.26666958 804.92008602 21.6887207 812.1652832 C22.44123802 814.41738034 23.19046735 816.67055433 23.93945312 818.92382812 C24.41907801 820.36204348 24.89888853 821.80019695 25.37890625 823.23828125 C25.60180832 823.90901169 25.82471039 824.57974213 26.05436707 825.27079773 C27.23519232 828.79880622 27.23519232 828.79880622 28.7421875 832.1953125 C28.80100815 838.07737753 27.89746595 842.83733754 23.7421875 847.1953125 C16.11831699 851.07001839 7.54198554 853.33063051 -0.57125854 855.99752808 C-4.55657992 857.30832498 -8.53797505 858.63094381 -12.51953125 859.953125 C-13.33013504 860.22215134 -14.14073883 860.49117767 -14.97590637 860.76835632 C-22.55156311 863.2859674 -30.11243227 865.84565798 -37.66351318 868.43600464 C-38.99396227 868.89228365 -40.32472099 869.34766102 -41.65582275 869.80203247 C-49.33219106 872.42367181 -56.87931461 875.18689625 -64.34008789 878.37719727 C-67.74519594 879.33197235 -69.86113053 879.09497098 -73.2578125 878.1953125 C-76.45100357 875.95144851 -77.16148494 874.54851354 -78.1953125 870.7578125 C-78.26823962 866.60096676 -77.96873121 865.31697647 -75.2578125 862.1953125 C-69.94151804 858.24494571 -64.3679448 855.91377124 -58.09765625 853.92578125 C-57.23817886 853.64348663 -56.37870148 853.36119202 -55.49317932 853.07034302 C-52.73026064 852.16487077 -49.96291097 851.27386539 -47.1953125 850.3828125 C-44.34220719 849.45141754 -41.4903207 848.51635403 -38.63845825 847.5811615 C-36.76506811 846.96716853 -34.89127113 846.35441545 -33.01705933 845.74293518 C-25.03282276 843.13566115 -17.09739682 840.40616258 -9.18334961 837.5925293 C-3.59027533 835.61524893 2.0465446 833.85404096 7.7421875 832.1953125 C7.42056641 831.24092285 7.09894531 830.2865332 6.76757812 829.30322266 C-3.95169765 797.46386931 -3.95169765 797.46386931 -8.4453125 782.5703125 C-11.97601885 770.90359129 -15.92147937 759.40707526 -19.95703125 747.90673828 C-34.73317684 705.74702257 -34.73317684 705.74702257 -38.2578125 691.1953125 C-38.48726562 690.27363281 -38.71671875 689.35195313 -38.953125 688.40234375 C-40.03011917 683.63171466 -40.6163215 678.80640425 -41.1328125 673.9453125 C-41.25398437 672.80578125 -41.37515625 671.66625 -41.5 670.4921875 C-40.98271159 663.45039039 -35.45942063 659.21174496 -30.5078125 654.7578125 C-29.88310059 654.18724121 -29.25838867 653.61666992 -28.61474609 653.02880859 C-24.80698705 649.56118694 -20.97532665 646.11969428 -17.0703125 642.76171875 C-15.72333811 641.59763097 -14.39241871 640.41491274 -13.0703125 639.22265625 C-11.9875 638.25005859 -11.9875 638.25005859 -10.8828125 637.2578125 C-9.91214844 636.37802734 -9.91214844 636.37802734 -8.921875 635.48046875 C-7.2578125 634.1953125 -7.2578125 634.1953125 -5.2578125 634.1953125 C-5.2578125 633.5353125 -5.2578125 632.8753125 -5.2578125 632.1953125 C-3.29854187 630.4809507 -1.29901038 628.81126082 0.7421875 627.1953125 C-4.95873908 627.74246148 -9.88460203 628.86634276 -15.25390625 630.8203125 C-16.36674988 631.21416893 -16.36674988 631.21416893 -17.5020752 631.61598206 C-19.90273058 632.46783205 -22.29903779 633.33122454 -24.6953125 634.1953125 C-26.37095428 634.79350638 -28.0468191 635.39107582 -29.72290039 635.98803711 C-33.0512529 637.17491818 -36.37786337 638.36649956 -39.703125 639.56201172 C-43.52832186 640.93620874 -47.35991276 642.29121719 -51.1953125 643.63671875 C-62.10554319 647.47963216 -72.93152431 651.53438308 -83.69778442 655.76290894 C-85.06217514 656.29766569 -86.42794994 656.82890551 -87.7951355 657.35647583 C-89.69336999 658.09089631 -91.58514364 658.84195063 -93.4765625 659.59375 C-94.56904297 660.02349121 -95.66152344 660.45323242 -96.78710938 660.89599609 C-99.57716117 661.99924819 -99.57716117 661.99924819 -100.2578125 665.1953125 C-100.1290096 667.08568447 -99.91543506 668.97071207 -99.65625 670.84765625 C-99.49850098 672.00185059 -99.34075195 673.15604492 -99.17822266 674.34521484 C-98.90824463 676.22007568 -98.90824463 676.22007568 -98.6328125 678.1328125 C-98.44895996 679.4317041 -98.26510742 680.7305957 -98.07568359 682.06884766 C-94.954801 703.81883085 -90.70065026 725.37695843 -86.48164368 746.93533325 C-85.45785102 752.16682761 -84.44064708 757.39957951 -83.42578125 762.6328125 C-82.95908245 765.03825589 -82.49233493 767.44368981 -82.02557373 769.84912109 C-81.72787917 771.38329177 -81.4302292 772.9174711 -81.13262939 774.45166016 C-80.85020403 775.9070166 -80.56755394 777.36232945 -80.28466797 778.81759644 C-80.01136006 780.22368414 -79.73856429 781.62987151 -79.46630859 783.03616333 C-78.79359727 786.4986932 -78.10411224 789.95660506 -77.38427734 793.40966797 C-77.24426804 794.08747314 -77.10425873 794.76527832 -76.96000671 795.46362305 C-76.57645949 797.31364239 -76.18723631 799.16248242 -75.79760742 801.01123047 C-75.08108415 805.23777796 -74.8028289 809.11426095 -76.2578125 813.1953125 C-81.12005866 819.40818259 -87.11303613 821.66957597 -94.5703125 823.5078125 C-95.39354004 823.71801025 -96.21676758 823.92820801 -97.06494141 824.14477539 C-101.7393647 825.33315127 -106.42315928 826.4837918 -111.10546875 827.640625 C-125.87962285 831.29504343 -140.55358366 835.19138784 -155.09765625 839.68359375 C-155.86408447 839.91747803 -156.6305127 840.1513623 -157.42016602 840.39233398 C-158.83876073 840.82700656 -160.25490321 841.26981441 -161.66772461 841.72290039 C-165.9760454 843.0417741 -169.76078761 843.59017322 -174.2578125 843.1953125 C-177.86302841 840.21709066 -180.04909717 838.07375044 -180.5703125 833.3828125 C-180.17177413 829.31772111 -179.1175415 828.08696829 -176.2578125 825.1953125 C-173.7066976 824.03598575 -171.41869267 823.17432123 -168.7578125 822.3828125 C-167.98518066 822.13982422 -167.21254883 821.89683594 -166.41650391 821.64648438 C-163.70366958 820.8053117 -160.98235258 819.99774554 -158.2578125 819.1953125 C-157.20303711 818.88158691 -156.14826172 818.56786133 -155.06152344 818.24462891 C-137.24875842 812.97297848 -119.31642098 807.98235537 -101.14453125 804.09375 C-97.49829831 803.61236088 -97.49829831 803.61236088 -96.2578125 802.1953125 C-96.48981599 800.51709055 -96.80337283 798.85007586 -97.1484375 797.19140625 C-97.47134766 795.61262695 -97.47134766 795.61262695 -97.80078125 794.00195312 C-98.03410156 792.89013672 -98.26742188 791.77832031 -98.5078125 790.6328125 C-100.53249682 780.83885135 -102.44083649 771.02948585 -104.2578125 761.1953125 C-104.52325419 759.76244736 -104.78871668 758.32958608 -105.05419922 756.89672852 C-106.67270562 748.15186728 -108.27896731 739.40475372 -109.88449097 730.65750122 C-110.76069155 725.88733214 -111.64337617 721.11843789 -112.53291321 716.35073853 C-118.82009437 682.6351395 -118.82009437 682.6351395 -120.2578125 668.1953125 C-120.32790527 667.49374023 -120.39799805 666.79216797 -120.47021484 666.06933594 C-121.07044133 659.15916544 -121.18427555 652.7091645 -116.6484375 647.12109375 C-111.62900149 643.07765918 -105.53953466 641.34157674 -99.50976562 639.30908203 C-95.6731754 637.99507868 -91.86396099 636.6134798 -88.0546875 635.22265625 C-81.04139216 632.66495828 -74.01976504 630.13158611 -66.99252319 627.61247253 C-62.31476635 625.93514845 -57.64039558 624.24895851 -52.96875 622.5546875 C-39.34449014 617.62922757 -25.64837357 612.97063695 -11.890625 608.43560791 C1.66330197 603.96256626 15.05072137 599.14000605 28.38085938 594.03637695 C30.48966426 593.28525694 32.56125228 592.69158267 34.7421875 592.1953125 C35.08446263 590.6764666 35.41549964 589.15508717 35.7421875 587.6328125 C35.9278125 586.78589844 36.1134375 585.93898438 36.3046875 585.06640625 C36.81069323 581.74574368 36.76981303 578.55008746 36.7421875 575.1953125 C21.52994191 579.55301134 6.34141731 583.958094 -8.7578125 588.6953125 C-26.29667215 594.19042279 -43.95108388 599.26680538 -61.62890625 604.29296875 C-64.005232 604.96866676 -66.38153448 605.64444665 -68.7578125 606.3203125 C-69.90910645 606.64765381 -71.06040039 606.97499512 -72.24658203 607.31225586 C-80.41360616 609.643943 -88.54950679 612.06550482 -96.66015625 614.58642578 C-105.56849492 617.34070315 -114.54337276 619.86187291 -123.51150513 622.41271973 C-127.78832318 623.63144962 -132.06204672 624.8608963 -136.3359375 626.08984375 C-152.51494979 630.73691251 -168.6975257 635.37464306 -184.92443848 639.85214233 C-186.34276401 640.24420095 -187.76050249 640.63839018 -189.1776123 641.03482056 C-191.12576272 641.57903328 -193.07649788 642.11396774 -195.02734375 642.6484375 C-196.66086792 643.09944824 -196.66086792 643.09944824 -198.32739258 643.55957031 C-201.0936937 644.15970762 -203.4437983 644.24357276 -206.2578125 644.1953125 C-206.23902039 646.09515144 -206.23902039 646.09515144 -206.21984863 648.03337097 C-205.86201733 684.39187353 -205.5548876 720.75060143 -205.30062872 757.1099658 C-205.26813775 761.75176333 -205.2345703 766.39355219 -205.20062256 771.03533936 C-205.10484763 784.30238975 -205.02359776 797.56931015 -204.98139 810.83664989 C-204.9637697 816.37016712 -204.93975601 821.90345997 -204.89892578 827.43685913 C-204.86119828 832.60388878 -204.84243744 837.77062886 -204.83886147 842.93779182 C-204.8343648 844.82006803 -204.82307716 846.70234224 -204.80446434 848.58453178 C-204.78033522 851.1382618 -204.78089665 853.69082198 -204.7878418 856.24462891 C-204.77502922 856.98439059 -204.76221664 857.72415228 -204.74901581 858.48633099 C-204.79818102 863.33085312 -205.81083086 865.79774951 -209.2578125 869.1953125 C-212.0376941 870.5852533 -214.1764451 870.38019454 -217.2578125 870.1953125 C-219.80190708 869.34728097 -220.89604688 868.76160551 -222.34130859 866.49925232 C-223.49418079 863.60112156 -223.5820085 861.20169443 -223.671875 858.08227539 C-223.71062744 856.82660263 -223.74937988 855.57092987 -223.78930664 854.27720642 C-223.82114929 852.88664247 -223.85229412 851.4960624 -223.8828125 850.10546875 C-223.92106207 848.63704726 -223.95939427 847.16862792 -223.99780273 845.70021057 C-224.48156238 825.76590378 -224.32271655 805.82284203 -224.24743652 785.88470459 C-224.22386823 779.50777878 -224.20548836 773.13086824 -224.1953125 766.75390625 C-224.19381258 765.85549892 -224.19231266 764.9570916 -224.19076729 764.03145981 C-224.17588332 750.01421988 -224.42750916 736.01655297 -224.8250103 722.00544548 C-225.29051582 705.56329164 -225.37562824 689.14391614 -225.3203125 672.6953125 C-225.3146599 669.98698069 -225.31063835 667.2786472 -225.30664062 664.5703125 C-225.29592377 658.11195733 -225.27944819 651.65363989 -225.2578125 645.1953125 C-226.4331958 644.93919189 -227.6085791 644.68307129 -228.81958008 644.41918945 C-237.24507663 642.57235413 -245.62260781 640.65448428 -253.9453125 638.3828125 C-263.69946055 635.78087052 -273.51383301 633.5065015 -283.36746216 631.31677246 C-292.90129193 629.19791644 -302.39826395 626.96487821 -311.8828125 624.6328125 C-322.28177682 622.09082793 -332.70733366 619.79784048 -343.19897461 617.67333984 C-354.80628571 615.31556887 -366.37486288 612.78960533 -377.9453125 610.2578125 C-392.22807803 607.13534838 -406.51929233 604.07377621 -420.84570312 601.15811157 C-433.75943841 598.52875849 -446.64112413 595.76054996 -459.51586914 592.94677734 C-468.74510022 590.93264453 -477.98888127 589.02007922 -487.2578125 587.1953125 C-490.02883381 586.6467801 -492.79958191 586.09687378 -495.5703125 585.546875 C-496.27352631 585.4073642 -496.97674011 585.26785339 -497.70126343 585.12411499 C-539.71308299 576.78345871 -539.71308299 576.78345871 -555.3828125 572.6328125 C-556.11185791 572.44702637 -556.84090332 572.26124023 -557.59204102 572.06982422 C-561.95482848 570.86461133 -564.99521837 569.3426849 -568.2578125 566.1953125 C-570.16397612 562.54183223 -570.48945709 560.9829041 -569.3203125 557.0078125 C-566.7296486 553.475089 -564.53586077 551.89840235 -560.2578125 551.1953125 C-556.04286863 551.63025698 -551.99830927 552.6112734 -547.89279175 553.64401245 C-543.93220978 554.63763687 -539.9527786 555.55180741 -535.9765625 556.48046875 C-535.0831163 556.6912355 -534.1896701 556.90200226 -533.26914978 557.11915588 C-520.80240565 560.04137414 -508.25733776 562.6040848 -495.7217598 565.2109642 C-492.32764272 565.91752218 -488.934228 566.62743573 -485.54077148 567.3371582 C-474.73127525 569.5972055 -463.92018054 571.84957011 -453.1086731 574.09997559 C-448.65816998 575.02655198 -444.20791109 575.95429536 -439.7578125 576.8828125 C-438.9210498 577.05731934 -438.08428711 577.23182617 -437.22216797 577.41162109 C-420.8943976 580.8202291 -404.59466384 584.35583762 -388.30078125 587.92260742 C-387.36919693 588.12629944 -386.43761261 588.32999146 -385.47779846 588.53985596 C-383.75392829 588.91697484 -382.03022806 589.29487193 -380.30674744 589.67376709 C-375.37927846 590.75199841 -370.44299159 591.77107844 -365.49412537 592.74653625 C-362.11131549 593.42538792 -358.74773063 594.18352848 -355.3828125 594.9453125 C-349.98562066 596.15998303 -344.58363023 597.34287947 -339.16796875 598.47265625 C-322.11970361 602.03895257 -305.21626144 606.06796779 -288.30505371 610.22489929 C-277.9276968 612.77267029 -267.53900025 615.27336442 -257.14923096 617.7699585 C-253.89518025 618.55231245 -250.64167714 619.33691484 -247.38818359 620.12158203 C-242.51558171 621.29571278 -237.63820196 622.44835093 -232.75909424 623.59509277 C-230.52051006 624.13227432 -228.29304263 624.69974466 -226.06591797 625.28222656 C-218.38237735 627.18457892 -212.86716934 627.29004358 -205.2578125 625.1953125 C-203.94659856 624.85964071 -202.63487199 624.52596766 -201.32275391 624.19384766 C-196.72502171 623.01409118 -192.14767326 621.76390506 -187.5703125 620.5078125 C-185.89968774 620.0525446 -184.22903312 619.59738625 -182.55834961 619.14233398 C-171.91469156 616.23528379 -161.30189962 613.23548374 -150.72265625 610.1015625 C-145.57592241 608.57709744 -140.42038551 607.08499124 -135.26171875 605.6015625 C-119.74554638 601.13709142 -104.25199787 596.63495593 -88.83642578 591.83227539 C-82.30034713 589.80218557 -75.74266342 587.9102393 -69.13720703 586.12084961 C-62.67382134 584.35182342 -56.28091983 582.37352473 -49.8828125 580.3828125 C-40.72665449 577.53682541 -31.54515487 574.81013226 -22.3203125 572.1953125 C-2.50797118 566.5746434 17.26426149 560.89664657 36.7421875 554.1953125 C37.7321875 553.8653125 38.7221875 553.5353125 39.7421875 553.1953125 C39.7421875 539.3353125 39.7421875 525.4753125 39.7421875 511.1953125 C30.3371875 511.6903125 30.3371875 511.6903125 20.7421875 512.1953125 C17.55221393 512.30766814 14.3698048 512.41257027 11.1796875 512.4765625 C9.60546781 512.51428368 8.03124908 512.55204519 6.45703125 512.58984375 C4.08351942 512.64355203 1.70998553 512.69601183 -0.66357422 512.74755859 C-8.8356317 512.92856942 -16.94370711 513.14710067 -25.08056641 513.98583984 C-27.70910828 514.23873163 -30.30571324 514.29606756 -32.9453125 514.2578125 C-33.77417969 514.24878906 -34.60304688 514.23976563 -35.45703125 514.23046875 C-36.05128906 514.21886719 -36.64554688 514.20726562 -37.2578125 514.1953125 C-37.5878125 514.8553125 -37.9178125 515.5153125 -38.2578125 516.1953125 C-37.195625 516.34226562 -36.1334375 516.48921875 -35.0390625 516.640625 C-19.78086949 518.97236399 -19.78086949 518.97236399 -14.2578125 525.1953125 C-10.9746183 529.91490417 -10.63830193 533.61971733 -11.2578125 539.1953125 C-14.68976188 545.23554341 -20.73103579 547.87876622 -27.15234375 549.765625 C-29.12167554 550.29634756 -31.09468757 550.81351837 -33.0703125 551.3203125 C-34.19735596 551.61470215 -35.32439941 551.9090918 -36.4855957 552.21240234 C-39.70707958 553.04406962 -42.93129864 553.86213133 -46.15881348 554.66992188 C-47.56886931 555.02286635 -48.97861507 555.37705173 -50.38806152 555.73242188 C-90.7284917 565.90064378 -131.58350412 574.16149865 -172.4453125 581.9453125 C-173.62818848 582.1731543 -174.81106445 582.40099609 -176.02978516 582.63574219 C-183.09391789 583.94543809 -190.08411533 584.79596084 -197.2578125 585.1953125 C-198.07685059 585.26290771 -198.89588867 585.33050293 -199.73974609 585.40014648 C-208.61407887 585.824179 -217.14520545 583.55018053 -225.74728394 581.63491821 C-230.56512558 580.56468603 -235.39176295 579.53588104 -240.21875 578.5078125 C-241.17565231 578.30360184 -242.13255463 578.09939117 -243.11845398 577.88899231 C-254.51533169 575.47612572 -265.98300437 573.60116176 -277.49023438 571.79443359 C-281.5257026 571.15271256 -285.556226 570.48533373 -289.5859375 569.80859375 C-290.30386978 569.68803116 -291.02180206 569.56746857 -291.76148987 569.44325256 C-293.23985948 569.19485289 -294.71821728 568.94638299 -296.19656372 568.69784546 C-309.46296689 566.47060492 -322.73785634 564.29636742 -336.01602173 562.14050293 C-398.11688744 552.05705259 -398.11688744 552.05705259 -423.2578125 547.1953125 C-424.36237793 546.98519531 -425.46694336 546.77507813 -426.60498047 546.55859375 C-429.88792562 545.93027889 -433.16693633 545.28450447 -436.4453125 544.6328125 C-437.41952148 544.44710693 -438.39373047 544.26140137 -439.39746094 544.07006836 C-446.5303122 542.61654621 -453.5443711 540.95388769 -458.0078125 534.8203125 C-460.64379881 530.09676657 -461.92701229 524.97010976 -463.265625 519.7578125 C-464.36728842 515.80223359 -465.77982329 512.02008737 -467.2578125 508.1953125 C-473.86931304 490.72334437 -480.01027888 473.15896921 -485.70043945 455.36694336 C-486.20517387 453.7888783 -486.70997542 452.21083472 -487.21484375 450.6328125 C-487.46510818 449.85027603 -487.71537262 449.06773956 -487.97322083 448.26148987 C-489.71086684 442.84751861 -491.50358287 437.45424862 -493.33203125 432.0703125 C-499.80353295 413.00023771 -505.74812701 393.85951324 -511.08642578 374.44042969 C-512.07145298 370.85898186 -513.07796034 367.2839486 -514.08999634 363.71005249 C-514.86972161 360.94601799 -515.63695672 358.17863547 -516.4005127 355.41009521 C-516.92928816 353.50310316 -517.46983506 351.59938732 -518.01074219 349.69580078 C-520.94179835 338.90171005 -520.94179835 338.90171005 -519.2578125 333.1953125 C-516.93692476 330.79706184 -515.17342803 330.24594648 -511.86499023 330.06298828 C-505.92368307 330.09585712 -500.10153088 330.38512748 -494.1953125 331.0078125 C-480.00446946 332.40195979 -465.77842645 333.33209775 -451.55549622 334.32855225 C-439.69617464 335.1595223 -427.84471827 336.02186899 -416.0078125 337.1328125 C-397.74369305 338.80737459 -379.47192599 340.19460047 -361.17056274 341.38485718 C-343.10465227 342.56033967 -325.05401433 343.87221674 -307.0078125 345.3203125 C-305.9278299 345.40657898 -304.84784729 345.49284546 -303.73513794 345.58172607 C-300.6539891 345.82852906 -297.57304592 346.07772501 -294.4921875 346.328125 C-293.58780441 346.40093689 -292.68342133 346.47374878 -291.75163269 346.54876709 C-289.25266905 346.75420039 -286.75507806 346.9702152 -284.2578125 347.1953125 C-283.0113092 347.30706818 -283.0113092 347.30706818 -281.73962402 347.42108154 C-280.94286255 347.49981506 -280.14610107 347.57854858 -279.32519531 347.65966797 C-278.62066223 347.72797821 -277.91612915 347.79628845 -277.19024658 347.8666687 C-273.64666339 348.46931624 -271.842373 349.73096412 -269.2578125 352.1953125 C-265.225941 360.12252005 -262.99764067 369.03216685 -260.3828125 377.5078125 C-259.93569375 378.94704183 -259.48850878 380.3862506 -259.04125977 381.82543945 C-256.41780476 390.29439713 -253.90187918 398.78671252 -251.51171875 407.32470703 C-248.37982665 418.44074905 -244.86843174 429.44287254 -241.42333984 440.46484375 C-239.50597565 446.60169439 -237.59702553 452.74109504 -235.6953125 458.8828125 C-235.34871582 459.99358154 -235.00211914 461.10435059 -234.64501953 462.2487793 C-234.33032715 463.26625244 -234.01563477 464.28372559 -233.69140625 465.33203125 C-233.41353271 466.22623779 -233.13565918 467.12044434 -232.84936523 468.04174805 C-232.2578125 470.1953125 -232.2578125 470.1953125 -232.2578125 472.1953125 C-231.1440625 472.3190625 -230.0303125 472.4428125 -228.8828125 472.5703125 C-224.65747599 473.09093432 -220.52238848 473.91010057 -216.359375 474.79296875 C-214.28704675 475.25799077 -214.28704675 475.25799077 -212.2578125 475.1953125 C-212.05027344 474.50566406 -211.84273438 473.81601562 -211.62890625 473.10546875 C-207.81825353 461.48218074 -200.26738678 451.40373289 -189.26171875 445.62109375 C-177.0870458 440.31652339 -160.68690984 438.49702255 -147.8828125 442.9453125 C-144.8811624 444.22976093 -143.11312791 445.32277273 -140.6328125 447.5078125 C-137.60066987 449.66222963 -135.64885234 449.32749368 -132.06665039 448.74804688 C-131.13973389 448.56564453 -130.21281738 448.38324219 -129.2578125 448.1953125 C-118.97920356 446.19634603 -108.72219538 444.47588846 -98.34768677 443.06430054 C-96.06842737 442.74890307 -93.79181786 442.41838717 -91.51538086 442.08325195 C-84.85539786 441.1050007 -78.22574182 440.15755859 -71.51953125 439.546875 C-63.24957378 438.67530816 -56.70129806 437.85807726 -51.15576172 431.21850586 C-49.14251793 428.42951368 -47.36480265 425.54899631 -45.6484375 422.56933594 C-44.19645378 420.09056318 -42.64075363 417.71263318 -41.0390625 415.328125 C-30.99214677 400.34010317 -21.80636564 384.79965457 -12.53808594 369.32446289 C-8.49735661 362.5813139 -4.40805161 355.87178411 -0.2578125 349.1953125 C0.33515625 348.22078125 0.928125 347.24625 1.5390625 346.2421875 C4.72945371 341.07544775 8.07354401 336.46714106 12.1640625 331.98046875 C16.17564796 327.61446875 16.17564796 327.61446875 17.7421875 322.1953125 C15.916875 322.659375 15.916875 322.659375 14.0546875 323.1328125 C2.99260199 325.57045726 -8.54287833 325.43540086 -19.8203125 325.4453125 C-20.86871307 325.44632462 -20.86871307 325.44632462 -21.93829346 325.44735718 C-33.58833201 325.42959949 -44.86218688 324.75115259 -56.2578125 322.1953125 C-57.00063477 322.02902344 -57.74345703 321.86273438 -58.50878906 321.69140625 C-82.57179539 316.06872195 -104.74649862 305.69259543 -123.2578125 289.1953125 C-124.09441406 288.46699219 -124.93101562 287.73867188 -125.79296875 286.98828125 C-142.64802177 272.11311081 -142.64802177 272.11311081 -146.2578125 265.1953125 C-146.2578125 264.5353125 -146.2578125 263.8753125 -146.2578125 263.1953125 C-146.9178125 263.1953125 -147.5778125 263.1953125 -148.2578125 263.1953125 C-150.87757582 259.72589621 -153.0188062 255.91820925 -155.2578125 252.1953125 C-155.91523438 251.1228125 -156.57265625 250.0503125 -157.25 248.9453125 C-166.449896 233.48089588 -171.59212093 217.76713846 -175.2578125 200.1953125 C-175.53165771 198.94669434 -175.53165771 198.94669434 -175.81103516 197.67285156 C-180.62547787 175.05942727 -179.8513489 148.03844806 -172.2578125 126.1953125 C-171.71025777 124.54449614 -171.16343707 122.8934362 -170.6171875 121.2421875 C-164.38435974 102.6897727 -156.45569341 85.29753632 -144.30078125 69.84375 C-142.15521555 67.14195197 -142.15521555 67.14195197 -140.12109375 63.859375 C-139.50621094 62.98023438 -138.89132812 62.10109375 -138.2578125 61.1953125 C-137.5978125 61.1953125 -136.9378125 61.1953125 -136.2578125 61.1953125 C-136.0515625 60.6384375 -135.8453125 60.0815625 -135.6328125 59.5078125 C-134.1060235 56.94003099 -132.26540191 55.49371637 -129.94140625 53.66015625 C-128.11769261 52.07339844 -126.66832693 50.37370656 -125.1328125 48.5078125 C-116.80967669 38.81873536 -106.17480904 31.64369387 -95.2578125 25.1953125 C-94.62810547 24.82019531 -93.99839844 24.44507812 -93.34960938 24.05859375 C-64.70908589 7.25844684 -32.61631911 1.95541481 0 0 Z M-55.09765625 27.51367188 C-56.84096193 28.06377466 -58.59486682 28.58022208 -60.3515625 29.0859375 C-96.7286801 40.53799304 -125.08793887 71.5229808 -142.2578125 104.1953125 C-151.21217461 121.67697718 -157.94962297 140.47336423 -159.2578125 160.1953125 C-159.31227539 160.93056152 -159.36673828 161.66581055 -159.42285156 162.42333984 C-160.83038235 183.97449526 -155.78452473 206.40929183 -147.2578125 226.1953125 C-146.82927979 227.19062988 -146.82927979 227.19062988 -146.39208984 228.20605469 C-132.27477004 260.13209505 -104.73943452 284.76817167 -72.671875 297.88671875 C-61.04356235 302.34379511 -49.54756055 304.55629468 -37.2578125 306.1953125 C-36.30519531 306.329375 -35.35257813 306.4634375 -34.37109375 306.6015625 C-17.88617459 308.51285747 1.57774113 308.94975194 17.26171875 303.03515625 C19.90927174 302.13874067 22.58115904 301.49447511 25.30273438 300.86425781 C50.23855741 295.04904459 70.39610264 281.89763903 89.0546875 264.6953125 C89.72000488 264.08333008 90.38532227 263.47134766 91.07080078 262.84082031 C91.68036621 262.26686523 92.28993164 261.69291016 92.91796875 261.1015625 C93.46364502 260.58916016 94.00932129 260.07675781 94.5715332 259.54882812 C95.96024307 258.24145156 95.96024307 258.24145156 95.7421875 256.1953125 C96.4021875 256.1953125 97.0621875 256.1953125 97.7421875 256.1953125 C99.37914205 254.3362433 100.88009404 252.48231733 102.3671875 250.5078125 C103.03379395 249.63129028 103.03379395 249.63129028 103.71386719 248.73706055 C108.15374188 242.80425018 111.96982453 236.57240229 115.7421875 230.1953125 C116.27585937 229.34324219 116.80953125 228.49117187 117.359375 227.61328125 C136.73556565 196.54109987 141.43052722 159.57765691 133.7421875 124.1953125 C128.54792099 102.41353025 117.89309883 83.92098896 103.2578125 67.10546875 C101.62975061 65.22207417 100.0520248 63.29345096 98.5390625 61.31640625 C97.64960937 60.26646484 97.64960937 60.26646484 96.7421875 59.1953125 C96.0821875 59.1953125 95.4221875 59.1953125 94.7421875 59.1953125 C94.7421875 58.5353125 94.7421875 57.8753125 94.7421875 57.1953125 C92.79842796 55.37902474 92.79842796 55.37902474 90.3671875 53.5703125 C89.14902344 52.62285156 89.14902344 52.62285156 87.90625 51.65625 C85.90108871 50.00880442 85.90108871 50.00880442 83.7421875 50.1953125 C83.7421875 49.5353125 83.7421875 48.8753125 83.7421875 48.1953125 C81.29874469 46.36146041 78.70013514 44.83961783 76.09375 43.24609375 C73.87539431 41.88870828 71.68154623 40.49035844 69.515625 39.05078125 C32.3115547 14.7361834 -13.89373444 14.45143342 -55.09765625 27.51367188 Z M76.7421875 39.1953125 C77.7321875 40.1853125 78.7221875 41.1753125 79.7421875 42.1953125 C80.4021875 41.8653125 81.0621875 41.5353125 81.7421875 41.1953125 C81.7421875 40.5353125 81.7421875 39.8753125 81.7421875 39.1953125 C80.0921875 39.1953125 78.4421875 39.1953125 76.7421875 39.1953125 Z M-136.2578125 68.1953125 C-136.2578125 69.1853125 -136.2578125 70.1753125 -136.2578125 71.1953125 C-135.5978125 70.8653125 -134.9378125 70.5353125 -134.2578125 70.1953125 C-134.9178125 69.5353125 -135.5778125 68.8753125 -136.2578125 68.1953125 Z M-132.2578125 71.1953125 C-131.9278125 71.8553125 -131.5978125 72.5153125 -131.2578125 73.1953125 C-130.9278125 72.5353125 -130.5978125 71.8753125 -130.2578125 71.1953125 C-130.9178125 71.1953125 -131.5778125 71.1953125 -132.2578125 71.1953125 Z M22.7421875 349.1953125 C16.81388239 356.5645251 12.03232377 363.92981477 7.76171875 372.359375 C5.32373518 377.11028494 2.51152975 381.63277479 -0.2578125 386.1953125 C-1.23615687 387.8374814 -2.21274204 389.48069974 -3.1875 391.125 C-8.6557315 400.31807505 -14.22688737 409.35930591 -20.2578125 418.1953125 C-21.5290432 420.1325518 -22.79986511 422.07005941 -24.0703125 424.0078125 C-28.52178597 430.67625996 -33.19833938 437.1594275 -38.03710938 443.55078125 C-39.07226325 444.94534055 -40.0541253 446.37921117 -41.0234375 447.8203125 C-45.05221946 453.35480085 -49.20072462 454.45869749 -55.828125 455.55859375 C-56.52067383 455.65736816 -57.21322266 455.75614258 -57.92675781 455.85791016 C-60.56218258 456.23936774 -63.18609012 456.67406593 -65.8125 457.11328125 C-74.47690593 458.54782707 -83.15403428 459.89201843 -91.84375 461.1640625 C-102.63188096 462.7519468 -113.38224338 464.46225191 -124.0703125 466.6328125 C-125.02502441 466.81384521 -125.97973633 466.99487793 -126.96337891 467.18139648 C-132.49025645 468.35812863 -135.60669063 469.61168407 -139.2578125 474.1953125 C-142.7728594 478.58912112 -146.48080817 482.51436246 -150.5703125 486.3828125 C-152.48495201 488.02653523 -152.48495201 488.02653523 -152.2578125 490.1953125 C-148.93868284 490.95166284 -145.60671732 491.58522368 -142.2578125 492.1953125 C-140.79794922 492.51048828 -140.79794922 492.51048828 -139.30859375 492.83203125 C-134.70703731 493.58391956 -131.58741903 493.91559182 -127.40234375 491.6484375 C-125.53825376 490.24971271 -123.70467724 488.80948059 -121.90234375 487.33203125 C-112.58140326 479.80093162 -100.15896598 476.19008687 -88.2578125 477.1953125 C-87.06285156 477.288125 -85.86789062 477.3809375 -84.63671875 477.4765625 C-73.63443961 478.49511763 -63.47029998 480.98717266 -53.93359375 486.74609375 C-53.15927002 487.19919922 -52.38494629 487.65230469 -51.5871582 488.11914062 C-50.10959004 489.00001346 -48.65454974 489.92081266 -47.23510742 490.89257812 C-38.2383874 496.25793907 -27.31275307 494.55705262 -17.2578125 494.1953125 C-14.884473 494.12558036 -12.51109888 494.05701851 -10.13769531 493.98950195 C-2.55126457 493.76186671 5.03276019 493.48104693 12.6171875 493.1953125 C15.26300752 493.09859337 17.90884082 493.00223703 20.5546875 492.90625 C26.95067957 492.67343971 33.3464949 492.43620269 39.7421875 492.1953125 C40.63707618 489.19895832 40.79214783 486.78120175 40.53613281 483.67163086 C40.43021568 482.32964882 40.43021568 482.32964882 40.32215881 480.96055603 C40.23904953 479.9951741 40.15594025 479.02979218 40.0703125 478.03515625 C39.988452 477.02703384 39.90659149 476.01891144 39.82225037 474.98023987 C39.55309877 471.69708771 39.27348004 468.41494536 38.9921875 465.1328125 C38.89749176 464.00987793 38.80279602 462.88694336 38.70523071 461.72998047 C38.07134374 454.21656925 37.41673256 446.7051809 36.7421875 439.1953125 C36.67602234 438.45790833 36.60985718 437.72050415 36.54168701 436.96075439 C34.3765885 413.09331861 30.6394643 389.3535119 27.10809326 365.65753174 C26.87969515 364.12061628 26.65359354 362.58335568 26.43096924 361.04559326 C26.17943175 359.31176747 25.91655542 357.57959596 25.65234375 355.84765625 C25.45523804 354.53075806 25.45523804 354.53075806 25.25415039 353.18725586 C24.86722481 350.98112907 24.86722481 350.98112907 22.7421875 349.1953125 Z M-497.2578125 350.1953125 C-495.73947339 358.89561604 -493.39291962 367.34536249 -490.9453125 375.8203125 C-490.72204285 376.59690216 -490.49877319 377.37349182 -490.26873779 378.1736145 C-482.10079781 406.43007211 -472.54353343 434.29127156 -463.2578125 462.1953125 C-462.81325693 463.53401497 -462.36873894 464.87272992 -461.92425537 466.2114563 C-461.47931904 467.54991649 -461.03435314 468.88836684 -460.58935547 470.22680664 C-460.19086395 471.42624405 -459.79237244 472.62568146 -459.38180542 473.86146545 C-457.43970116 479.62189191 -455.39557411 485.34092812 -453.14453125 490.98828125 C-452.74878906 491.98472656 -452.35304688 492.98117187 -451.9453125 494.0078125 C-451.50445312 495.07644531 -451.06359375 496.14507813 -450.609375 497.24609375 C-449.43168644 500.3685509 -448.77806987 503.46185382 -448.15625 506.73828125 C-446.32535415 516.71566104 -446.32535415 516.71566104 -440.46582031 524.54199219 C-435.27604778 526.78153167 -429.61743462 527.13507109 -424.04736328 527.71972656 C-419.79292661 528.25365535 -415.63941377 529.04498373 -411.44140625 529.90625 C-385.32139622 535.23197639 -359.01525465 539.37610484 -332.68965149 543.53727722 C-320.97448581 545.39182845 -309.26995702 547.30789186 -297.5703125 549.2578125 C-296.12158249 549.49916428 -296.12158249 549.49916428 -294.64358521 549.74539185 C-275.70641366 552.90692159 -256.79998211 556.23978578 -237.90234375 559.62890625 C-236.69342468 559.84551407 -236.69342468 559.84551407 -235.46008301 560.0664978 C-231.71809393 560.74018286 -227.98264361 561.43104231 -224.2578125 562.1953125 C-225.42296802 555.96454289 -226.7833327 549.8830885 -228.6328125 543.8203125 C-229.01083008 542.56589355 -229.01083008 542.56589355 -229.39648438 541.28613281 C-231.11258238 535.68427056 -232.9417421 530.12466135 -234.828125 524.578125 C-235.80543948 521.70077541 -236.78220239 518.82324047 -237.7578125 515.9453125 C-238.01048889 515.20013367 -238.26316528 514.45495483 -238.52349854 513.68719482 C-243.59109461 498.68244968 -248.03550352 483.51781687 -252.41259766 468.29956055 C-256.20852208 455.10691314 -260.14917734 442.02714763 -264.61328125 429.04296875 C-266.22270537 424.3572216 -267.67042288 419.63483554 -269.0703125 414.8828125 C-271.71866205 405.91281077 -274.46781393 396.97546941 -277.25497437 388.04776001 C-277.75484004 386.44429531 -278.25292254 384.84027357 -278.74917603 383.23568726 C-279.4504634 380.96942545 -280.15802226 378.70521337 -280.8671875 376.44140625 C-281.07842758 375.75479919 -281.28966766 375.06819214 -281.50730896 374.36077881 C-282.48395708 371.26614668 -283.44136486 368.91998396 -285.2578125 366.1953125 C-288.28983823 365.54826177 -288.28983823 365.54826177 -291.94335938 365.36743164 C-292.6349905 365.31480667 -293.32662163 365.2621817 -294.03921127 365.20796204 C-296.35089895 365.0354136 -298.6634771 364.88303929 -300.9765625 364.73046875 C-302.60708739 364.61255821 -304.23751867 364.49334668 -305.86785889 364.37290955 C-309.34664521 364.11851643 -312.825895 363.87283446 -316.30578613 363.6340332 C-321.78790735 363.25770383 -327.26852764 362.86211055 -332.74902344 362.46289062 C-339.11988772 361.99980746 -345.49098631 361.54036663 -351.86252975 361.08672142 C-363.48615778 360.25847157 -375.10397719 359.36969461 -386.71856689 358.42269897 C-389.51845116 358.19444521 -392.31851975 357.96859369 -395.11865234 357.7434082 C-402.97778931 357.11076602 -410.83654468 356.47342962 -418.69519043 355.8347168 C-428.00736679 355.07789406 -437.31968306 354.3228571 -446.63231659 353.57167816 C-451.74491438 353.15911462 -456.85726367 352.74363149 -461.96944237 352.32590866 C-465.16529782 352.06544549 -468.36136738 351.80768701 -471.55749893 351.55063629 C-473.05295976 351.42981478 -474.54833188 351.3078894 -476.0436058 351.18477631 C-486.63591169 350.31321837 -486.63591169 350.31321837 -497.2578125 350.1953125 Z M43.7421875 352.1953125 C43.84241211 352.85088135 43.94263672 353.5064502 44.04589844 354.18188477 C46.69591053 371.59474764 49.12156214 389.02657866 51.28515625 406.50683594 C51.57280402 408.82830098 51.86396563 411.14933601 52.16015625 413.46972656 C54.16156674 429.23826514 55.37203373 445.02762818 56.4296875 460.8828125 C56.49648712 461.87992249 56.56328674 462.87703247 56.6321106 463.90435791 C56.82253797 466.77584041 57.00815398 469.64758263 57.19140625 472.51953125 C57.24749054 473.37684341 57.30357483 474.23415558 57.36135864 475.1174469 C57.60227565 479.00130294 57.76104549 482.84568572 57.71411133 486.73754883 C57.33658649 490.0234922 57.33658649 490.0234922 58.7421875 491.1953125 C67.01235973 491.65950086 75.4096719 491.05813285 83.6796875 490.7578125 C84.86498047 490.71849609 86.05027344 490.67917969 87.27148438 490.63867188 C94.78595663 490.37073951 102.25549606 489.89448215 109.7421875 489.1953125 C109.16752444 481.70107638 107.46135167 474.88384671 105.3046875 467.6953125 C104.95414307 466.52129883 104.60359863 465.34728516 104.24243164 464.13769531 C99.0883619 447.32306359 92.46395382 430.91635957 84.69335938 415.13720703 C83.60402817 412.91324902 82.54149546 410.67714528 81.4765625 408.44140625 C76.01485392 397.10926016 69.83666478 386.57613845 62.7421875 376.1953125 C61.81986328 374.81666016 61.81986328 374.81666016 60.87890625 373.41015625 C57.40553623 368.3120117 53.65836264 363.43399113 49.8671875 358.5703125 C49.37798828 357.9410083 48.88878906 357.3117041 48.38476562 356.66333008 C47.19535343 355.15412705 45.97192204 353.67184497 44.7421875 352.1953125 C44.4121875 352.1953125 44.0821875 352.1953125 43.7421875 352.1953125 Z M-264.2578125 421.1953125 C-264.2578125 421.8553125 -264.2578125 422.5153125 -264.2578125 423.1953125 C-263.2678125 422.8653125 -262.2778125 422.5353125 -261.2578125 422.1953125 C-262.2478125 421.8653125 -263.2378125 421.5353125 -264.2578125 421.1953125 Z M-179.2578125 462.1953125 C-180.01191406 462.56269531 -180.76601563 462.93007813 -181.54296875 463.30859375 C-188.34942959 467.16066424 -191.95455071 472.75477551 -194.2578125 480.1953125 C-194.00163598 482.97339616 -194.00163598 482.97339616 -193.2578125 485.1953125 C-185.41561408 486.73595445 -185.41561408 486.73595445 -177.8125 485.08984375 C-175.45796235 483.26095012 -173.37880559 481.29135273 -171.2578125 479.1953125 C-170.24870821 478.29877895 -169.23403705 477.40848489 -168.21484375 476.5234375 C-162.88367578 471.85186246 -158.03069862 467.25887948 -154.2578125 461.1953125 C-162.86126384 458.20280768 -171.04234305 458.01551226 -179.2578125 462.1953125 Z M-226.2578125 488.1953125 C-225.44936164 493.04601769 -224.41203434 497.65674156 -223.08984375 502.375 C-222.87165482 503.15632294 -222.65346588 503.93764587 -222.42866516 504.74264526 C-219.88752339 513.69708114 -216.93107302 522.50641237 -213.9453125 531.3203125 C-213.38954331 532.97251145 -212.83420313 534.62485477 -212.27929688 536.27734375 C-210.94370909 540.25167077 -209.60244538 544.22403707 -208.2578125 548.1953125 C-200.61060672 547.54309879 -193.34190861 545.97288531 -185.8828125 544.1953125 C-183.95997437 543.74152222 -183.95997437 543.74152222 -181.99829102 543.27856445 C-171.37012618 540.75550135 -160.77803269 538.08939621 -150.1953125 535.3828125 C-149.43188538 535.18840576 -148.66845825 534.99399902 -147.88189697 534.79370117 C-145.70277541 534.23752001 -143.52500999 533.67633867 -141.34765625 533.11328125 C-140.09847412 532.79125732 -138.84929199 532.4692334 -137.56225586 532.13745117 C-134.6908651 531.31878128 -131.99983848 530.3686067 -129.2578125 529.1953125 C-130.04542969 528.51855469 -130.83304687 527.84179688 -131.64453125 527.14453125 C-134.68859562 523.70915218 -135.26396521 521.4828042 -136.0703125 517.0078125 C-136.42029297 515.16123047 -136.42029297 515.16123047 -136.77734375 513.27734375 C-137.2578125 510.1953125 -137.2578125 510.1953125 -137.2578125 508.1953125 C-160.98534797 502.62060277 -160.98534797 502.62060277 -184.2578125 507.1953125 C-191.70398481 509.0188649 -199.74328222 509.48086308 -206.56640625 505.59375 C-211.41310424 501.58654935 -212.26611528 496.14549585 -213.2578125 490.1953125 C-217.5478125 489.5353125 -221.8378125 488.8753125 -226.2578125 488.1953125 Z M-116.9453125 505.7578125 C-118.43066139 508.05491687 -118.43066139 508.05491687 -118.2578125 510.3828125 C-116.91364325 512.81911927 -115.84964529 513.17915373 -113.2578125 514.1953125 C-110.97074228 514.50275415 -108.6699778 514.71372388 -106.3671875 514.86328125 C-105.70374329 514.90721512 -105.04029907 514.95114899 -104.35675049 514.99641418 C-102.95506018 515.08704125 -101.55308484 515.17335034 -100.15087891 515.25561523 C-98.0280055 515.38161399 -95.90679236 515.52471578 -93.78515625 515.66992188 C-84.43024569 516.27571786 -76.56826562 516.13411838 -67.5703125 513.2578125 C-66.49394531 512.91878906 -65.41757812 512.57976563 -64.30859375 512.23046875 C-61.58108986 511.30500328 -58.91859992 510.29615776 -56.2578125 509.1953125 C-58.14751101 504.01820948 -62.24906781 502.81461357 -66.9765625 500.5859375 C-83.51193859 493.57808763 -103.09137681 492.54824591 -116.9453125 505.7578125 Z M-57.20678711 529.99316406 C-64.00705665 532.6725693 -71.36872835 533.78274234 -78.5078125 535.2578125 C-80.12647692 535.59878041 -81.74496796 535.94057254 -83.36328125 536.28320312 C-86.52205562 536.95071794 -89.68169287 537.61385231 -92.84228516 538.27270508 C-112.44307025 542.36138618 -131.97675919 546.54635285 -151.1953125 552.1953125 C-160.65578621 554.97076393 -170.1300196 557.44253485 -179.7578125 559.5703125 C-180.83667725 559.80878906 -181.91554199 560.04726563 -183.02709961 560.29296875 C-190.07160032 561.8105326 -197.14039552 563.07109136 -204.2578125 564.1953125 C-204.2578125 564.8553125 -204.2578125 565.5153125 -204.2578125 566.1953125 C-203.2678125 566.5253125 -202.2778125 566.8553125 -201.2578125 567.1953125 C-200.9278125 567.8553125 -200.5978125 568.5153125 -200.2578125 569.1953125 C-183.78501881 566.31817062 -167.35429335 563.30693583 -150.97119141 559.95361328 C-147.48992803 559.24271229 -144.00747128 558.53803099 -140.52464294 557.83485413 C-112.09619158 552.09109484 -83.80460024 545.89019168 -55.64306641 538.94726562 C-47.21040433 536.87350121 -38.75959805 534.96469874 -30.2578125 533.1953125 C-33.78851742 530.84150922 -37.26838125 529.87120503 -41.3203125 528.8203125 C-42.39055664 528.49740234 -42.39055664 528.49740234 -43.48242188 528.16796875 C-49.02195949 526.75214412 -52.09220925 527.66257027 -57.20678711 529.99316406 Z M-19.2578125 737.1953125 C-18.2578125 739.1953125 -18.2578125 739.1953125 -18.2578125 739.1953125 Z " fill="#000000" transform="translate(627.2578125,74.8046875)"/>
<path d="M0 0 C5.84157646 5.43402461 7.88576005 11.49513438 8.28515625 19.37109375 C8.32625282 20.97631581 8.35607019 22.58186354 8.375 24.1875 C8.39590698 25.34620605 8.39590698 25.34620605 8.41723633 26.52832031 C8.36649971 32.64043514 7.06588557 36.87827968 2.6875 41.375 C-0.61882387 43.37417257 -2.1941113 43.62136958 -6 43 C-9.90266109 41.08693084 -11.65720384 39.60284843 -13.8125 35.8125 C-16.12434004 28.39027673 -16.10156132 21.93690891 -15.375 14.3125 C-15.31803955 13.58756348 -15.2610791 12.86262695 -15.20239258 12.11572266 C-14.58007442 6.63252711 -12.95599093 3.86689203 -9 0 C-5.34946515 -1.21684495 -3.68135956 -1.10440787 0 0 Z " fill="#000000" transform="translate(622,208)"/>
<path d="M0 0 C5.37243209 3.54783251 7.17808855 6.54797192 8.625 12.625 C9.5570264 21.01323763 10.19474558 31.08795037 6.6875 38.9375 C4.77745634 41.2719978 3.91663297 42.21172082 1 43 C-3.70265448 42.92535469 -5.97686999 42.72755912 -9.8125 40 C-15.67744207 31.95665088 -15.87699179 23.08089665 -14.68359375 13.4453125 C-13.75194411 8.45972792 -12.16961919 4.96202398 -9 1 C-5.85088521 -0.57455739 -3.47991184 -0.34799118 0 0 Z " fill="#000000" transform="translate(535,209)"/>
<path d="M0 0 C2.69990662 1.79993774 4.5418865 3.083773 6 6 C7.44737304 15.51130854 0.97877357 24.17855265 -4.375 31.5625 C-16.92249923 47.88348224 -40.41844961 58.87636581 -60.41015625 61.65234375 C-87.72765464 64.29789038 -110.0389099 56.18956757 -131.6875 39.953125 C-136.31263209 36.04676343 -141.52541324 31.48030292 -142.375 25.25 C-141.97374385 21.77244671 -141.07935123 19.73191519 -138.6953125 17.13671875 C-135.3832842 14.91598088 -131.78865882 15.27195549 -128 16 C-125.4375 17.375 -125.4375 17.375 -124 19 C-124 19.66 -124 20.32 -124 21 C-123.34 21 -122.68 21 -122 21 C-122 21.66 -122 22.32 -122 23 C-121.42507813 23.26296875 -120.85015625 23.5259375 -120.2578125 23.796875 C-117.86944984 25.06956652 -115.9669732 26.53628026 -113.875 28.25 C-100.10204262 39.10553291 -84.79907406 44.72779918 -67 43 C-48.13332184 40.01841341 -30.63994811 32.69484807 -19 17 C-16.90292565 13.67441567 -14.89741732 10.33713326 -12.95703125 6.91796875 C-9.52434757 1.79977572 -6.32182325 -1.05363721 0 0 Z " fill="#000000" transform="translate(662,280)"/>
</svg>
