<svg xmlns="http://www.w3.org/2000/svg" xmlns:xlink="http://www.w3.org/1999/xlink" width="500" zoomAndPan="magnify" viewBox="0 0 375 194.87999" height="250" preserveAspectRatio="xMidYMid meet" version="1.2"><defs/><g id="2160566ba9"><g style="fill:#000000;fill-opacity:1;"><g transform="translate(19.250628, 132.698786)"><path style="stroke:none" d="M 42.15625 -28.25 L 42.15625 -8.890625 L -0.21875 -30.921875 L -0.21875 -47.609375 L 42.15625 -70.171875 L 42.15625 -50.265625 L 20.125 -39.375 Z M 42.15625 -28.25 "/></g></g><g style="fill:#000000;fill-opacity:1;"><g transform="translate(70.518439, 132.698786)"><path style="stroke:none" d="M 41.703125 -77.859375 C 45.859375 -77.859375 49.472656 -76.835938 52.546875 -74.796875 C 55.628906 -72.753906 58.019531 -70.140625 59.71875 -66.953125 C 61.425781 -63.765625 62.28125 -60.46875 62.28125 -57.0625 C 62.28125 -54.382812 61.6875 -51.765625 60.5 -49.203125 C 59.3125 -46.648438 57.421875 -44.484375 54.828125 -42.703125 C 58.984375 -40.628906 61.945312 -38 63.71875 -34.8125 C 65.5 -31.625 66.390625 -28.398438 66.390625 -25.140625 C 66.390625 -20.984375 65.441406 -16.976562 63.546875 -13.125 C 61.660156 -9.269531 58.882812 -6.117188 55.21875 -3.671875 C 51.550781 -1.222656 46.972656 0 41.484375 0 L 5.671875 0 L 5.671875 -77.859375 Z M 38.8125 -49.71875 C 40.519531 -49.71875 41.757812 -50.289062 42.53125 -51.4375 C 43.3125 -52.582031 43.703125 -53.863281 43.703125 -55.28125 C 43.703125 -56.613281 43.296875 -57.832031 42.484375 -58.9375 C 41.671875 -60.050781 40.519531 -60.609375 39.03125 -60.609375 L 24.46875 -60.609375 L 24.46875 -49.71875 Z M 41.484375 -18.015625 C 43.484375 -18.015625 44.984375 -18.738281 45.984375 -20.1875 C 46.984375 -21.632812 47.484375 -23.25 47.484375 -25.03125 C 47.484375 -26.800781 46.984375 -28.425781 45.984375 -29.90625 C 44.984375 -31.394531 43.484375 -32.140625 41.484375 -32.140625 L 24.46875 -32.140625 L 24.46875 -18.015625 Z M 41.484375 -18.015625 "/></g></g><g style="fill:#000000;fill-opacity:1;"><g transform="translate(141.247994, 132.698786)"><path style="stroke:none" d="M 35.8125 -78.515625 C 41.738281 -78.515625 46.6875 -77.253906 50.65625 -74.734375 C 54.625 -72.210938 57.609375 -68.96875 59.609375 -65 C 61.609375 -61.039062 62.609375 -56.910156 62.609375 -52.609375 C 62.609375 -47.859375 61.347656 -43.222656 58.828125 -38.703125 C 56.304688 -34.179688 52.488281 -30.695312 47.375 -28.25 L 64.0625 -3.5625 L 64.0625 0 L 43.8125 0 L 27.578125 -26.359375 L 24.46875 -26.359375 L 24.46875 0 L 5.5625 0 L 5.5625 -78.515625 Z M 35.375 -43.59375 C 38.1875 -43.59375 40.332031 -44.460938 41.8125 -46.203125 C 43.300781 -47.953125 44.046875 -49.828125 44.046875 -51.828125 C 44.046875 -53.898438 43.320312 -55.828125 41.875 -57.609375 C 40.425781 -59.390625 38.257812 -60.28125 35.375 -60.28125 L 24.46875 -60.28125 L 24.46875 -43.59375 Z M 35.375 -43.59375 "/></g></g><g style="fill:#000000;fill-opacity:1;"><g transform="translate(208.863679, 132.698786)"><path style="stroke:none" d="M 49.609375 0 L 4.78125 0 L 4.78125 -17.015625 L 17.6875 -17.015625 L 17.6875 -60.953125 L 4.78125 -60.953125 L 4.78125 -78.296875 L 49.609375 -78.296875 L 49.609375 -60.953125 L 36.703125 -60.953125 L 36.703125 -17.015625 L 49.609375 -17.015625 Z M 49.609375 0 "/></g></g><g style="fill:#000000;fill-opacity:1;"><g transform="translate(262.68933, 132.698786)"><path style="stroke:none" d="M 16.125 6.234375 L -2.21875 6.234375 L 27.921875 -82.1875 L 46.265625 -82.1875 Z M 16.125 6.234375 "/></g></g><g style="fill:#000000;fill-opacity:1;"><g transform="translate(314.179534, 132.698786)"><path style="stroke:none" d="M -0.109375 -50.828125 L -0.109375 -70.84375 L 41.046875 -48.828125 L 41.046875 -30.8125 L -0.109375 -9.5625 L -0.109375 -29.25 L 21.796875 -40.03125 Z M -0.109375 -50.828125 "/></g></g></g></svg>